PathFileType	4	(X/Y/Z)	C:/Users/beibeiliu/ov580/test_trc\sequence.18_training_dense_left.trc
DataRate	CameraRate	NumFrames	NumMarkers	Units	OrigDataRate	OrigDataStartFrame	OrigNumFrames
120	120	24	19	mm	120	253	336
Frame#	Time	ThumbCMC			ThumbMCP			ThumbIP			ThumbTip			IndexMCP			IndexPIP			IndexTip			MiddleMCP			MiddlePIP			MiddleTip			RingMCP			RingPIP			RingTip			PinkyMCP			PinkyPIP			PinkyTip			BackHand1			BackHand2			BackHand3	
		X0	Y0	Z0	X1	Y1	Z1	X2	Y2	Z2	X3	Y3	Z3	X4	Y4	Z4	X5	Y5	Z5	X6	Y6	Z6	X7	Y7	Z7	X8	Y8	Z8	X9	Y9	Z9	X10	Y10	Z10	X11	Y11	Z11	X12	Y12	Z12	X13	Y13	Z13	X14	Y14	Z14	X15	Y15	Z15	X16	Y16	Z16	X17	Y17	Z17	X18	Y18	Z18	
252	2.1	-235.469	23.2012	26.8294	-222.836	28.9219	-2.90318	-219.18	37.0672	-20.6189	-220.646	49.2005	-41.174	-223.864	85.2926	5.22801	-232.451	97.6972	-21.3167	-243.398	72.3658	-31.9506	-242.741	101.715	6.21557	-246.566	107.565	-20.3767	-255.45	74.0275	-26.83	-259.753	98.6539	11.8889	-262.3	104.496	-12.4989	-272.342	79.8552	-23.1886	-280.872	93.4863	18.9947	-276.382	98.0059	-6.19299	-276.763	78.008	-19.6536	-262.406	63.7504	43.1337	-264.754	44.5023	59.924	-240.802	48.292	46.6346	
253	2.10833	-229.914	21.3854	23.7783	-223.785	27.2687	-3.85698	-215.509	34.5466	-25.2434	-216.071	44.1393	-46.9002	-223.296	89.1086	-2.35063	-224.277	95.9616	-27.7725	-236.015	69.8535	-39.415	-237.922	101.208	-3.11943	-241.751	105.646	-29.3112	-252.845	73.9038	-32.4107	-257.182	102.059	2.50505	-261.719	102.612	-22.442	-268.451	73.6951	-27.6008	-276.204	94.6246	11.4476	-274.158	97.8341	-14.2041	-276.331	79.1446	-27.8459	-259.446	70.937	37.5693	-263.028	52.0597	54.8875	-236.241	50.3851	39.3804	
254	2.11667	-228.335	29.5884	20.6144	-218.865	25.7777	-7.29717	-214.339	31.1961	-26.4215	-214.846	41.6609	-50.4952	-216.872	85.1171	-9.63745	-220.245	90.438	-37.2089	-234.13	62.1718	-42.5294	-236.615	98.0944	-8.00458	-239.13	100.88	-38.7167	-248.85	65.6524	-35.7325	-253.671	99.6829	-4.12251	-255.242	96.744	-33.2409	-264.761	70.3038	-32.9079	-274.537	95.0663	3.31786	-269.366	97.3811	-20.7848	-270.045	73.6568	-32.7484	-255.379	73.151	31.6661	-260.27	54.548	49.3178	-234.806	52.8569	37.9879	
255	2.125	-227.948	31.7981	19.518	-219.66	25.3111	-6.05223	-212.707	27.5127	-27.9895	-213.813	35.8475	-51.7184	-214.552	83.8674	-15.1686	-220.432	85.8658	-45.1519	-233.09	61.2482	-49.3304	-228.985	96.1202	-19.4428	-237.663	96.3306	-45.5156	-248.282	64.1171	-40.6355	-248.016	97.5647	-12.4418	-254.452	93.5311	-40.7809	-259.248	64.9802	-37.9313	-268.108	96.761	-5.77041	-270.294	96.6112	-28.7045	-269.682	69.7094	-38.1666	-253.389	75.5061	25.8274	-257.856	59.8127	46.5122	-235.313	58.1637	36.3158	
256	2.13333	-224.645	30.7106	21.7685	-217.216	23.4002	-6.50041	-213.695	27.8767	-28.1207	-210.542	28.6835	-53.6863	-211.121	79.7855	-20.27	-214.244	78.3873	-51.6895	-230.785	54.4186	-53.0621	-232.17	95.2397	-23.8377	-235.548	91.1341	-53.2304	-245.683	60.3492	-46.5688	-245.665	97.7292	-22.039	-251.055	91.0321	-46.2513	-257.573	64.1508	-41.8228	-267.692	95.3452	-10.6146	-263.144	93.3426	-35.2301	-265.031	69.0783	-41.7142	-252.806	78.7306	20.6733	-255.911	65.8222	44.4958	-234.039	63.0632	33.5646	
257	2.14167	-221.728	32.6145	21.8178	-214.704	23.7918	-6.56694	-213.528	24.0572	-25.8238	-213.167	23.5856	-50.5176	-208.487	81.5279	-28.6076	-217.633	76.7997	-55.1461	-229.895	53.6834	-56.6009	-225.401	92.8402	-31.2485	-236.556	82.9702	-59.1729	-242.616	55.0595	-48.2973	-246.41	94.9604	-23.3961	-249.977	88.1079	-50.9329	-253.425	60.8039	-45.1844	-266.664	93.5095	-16.6825	-264.255	87.7528	-41.0097	-266.514	62.8551	-44.8746	-250.592	81.3544	15.2983	-254.94	71.3575	42.1998	-230.93	68.5497	25.2827	
258	2.15	-220.916	37.8396	21.4711	-217.64	24.265	-1.25054	-208.68	18.2534	-26.7102	-210.774	17.7288	-47.663	-209.858	79.2798	-30.9403	-214.813	74.4565	-57.6036	-227.376	49.0444	-59.0123	-229.068	92.1695	-35.0502	-232.561	77.4853	-62.9647	-245.46	51.7375	-47.4085	-244.673	93.4488	-31.8953	-246.67	79.6845	-55.3552	-256.361	53.5854	-43.0981	-262.615	92.6562	-22.7743	-264.883	82.4986	-46.4566	-264.044	60.918	-43.8538	-251.342	84.1588	15.0929	-250.398	75.0829	38.2711	-229.334	70.4432	25.2007	
259	2.15833	-216.901	41.0511	21.0511	-212.401	24.7019	-0.983493	-207.608	20.1184	-25.0224	-208.714	11.9706	-45.4066	-209.857	78.4091	-32.3227	-208.158	68.9845	-59.0619	-222.704	42.5673	-59.2238	-227.481	88.9291	-38.536	-232.338	76.6055	-64.7145	-240.948	45.3452	-48.052	-246.935	91.153	-35.9686	-248.636	76.8615	-56.385	-252.033	49.3155	-42.0763	-262.887	88.0512	-21.7302	-265.701	78.9724	-46.7687	-260.328	53.3426	-41.3016	-251.637	87.5304	14.3026	-250.51	78.7686	37.2482	-222.953	74.4352	24.2973	
260	2.16667	-216.594	45.3553	23.4159	-209.693	26.3653	2.4448	-205.99	18.7503	-18.5684	-208.582	10.7891	-37.923	-209.179	76.8474	-35.5363	-212.351	67.5434	-58.6073	-221.45	37.5891	-58.2996	-226.628	84.5458	-39.7383	-231.21	70.1763	-65.5428	-239.48	39.9019	-48.5183	-243.6	85.4021	-34.4119	-245.713	71.0451	-57.2341	-252.011	46.3587	-43.5279	-262.95	87.0442	-29.6142	-262.512	75.3889	-47.7056	-258.626	46.6354	-39.8099	-251.362	87.4708	11.3879	-251.017	83.2444	35.9138	-227.487	77.9321	23.5082	
261	2.175	-215.349	49.1224	29.6402	-207.999	27.915	7.02588	-204.825	19.3918	-16.7437	-206.321	9.65767	-35.2072	-204.731	72.5756	-34.9115	-208.301	57.8418	-59.508	-223.326	33.3406	-55.3056	-226.817	81.1887	-42.2721	-234.571	62.1751	-64.7794	-241.372	37.2752	-48.9156	-246.719	82.4429	-35.4288	-250.394	62.925	-57.7357	-250.227	39.8264	-41.7113	-262.975	82.3396	-25.8562	-263.564	68.8198	-46.4685	-258.345	43.7646	-37.2478	-248.467	87.2277	6.50213	-251.193	88.0107	32.5152	-221.003	80.076	24.1528	
262	2.18333	-212.934	52.0365	31.1198	-208.551	31.4728	8.96137	-203.833	18.5884	-6.0257	-205.192	5.21208	-31.8197	-209.091	69.5446	-36.4911	-208.601	49.9874	-58.056	-223.559	24.8126	-51.1393	-227.953	74.6127	-40.5264	-232.101	54.094	-63.4928	-241.531	29.184	-42.9275	-246.98	76.5983	-38.0896	-249.873	53.5692	-54.851	-248.898	33.3292	-38.5641	-265.412	79.1069	-28.6755	-265.387	58.6929	-45.81	-259.712	38.3234	-38.9915	-244.739	87.1645	10.1981	-250.107	90.0847	36.3601	-224.622	82.0457	23.2528	
263	2.19167	-208.384	51.4431	33.1654	-203.38	27.6944	12.2047	-201.262	14.0646	-5.41708	-205.447	2.64326	-23.9228	-205.254	62.2887	-36.2793	-209.843	42.3469	-57.0024	-218.749	18.0364	-48.5161	-227.299	68.7789	-41.5733	-234.174	44.5954	-61.4997	-240.04	21.655	-36.0585	-243.124	70.3481	-37.6313	-250.244	49.4544	-52.9747	-248.181	27.4857	-34.0964	-263.028	72.8351	-26.5194	-262.576	53.2058	-43.5462	-259.688	30.9739	-32.9399	-246.717	85.7915	6.16764	-247.853	90.0902	33.9896	-218.233	81.1958	18.4349	
264	2.2	-210.864	54.1611	32.181	-206.107	28.9402	18.8113	-201.132	10.5489	-2.84195	-204.385	-2.71782	-16.3426	-208.92	58.5427	-37.2313	-207.871	38.8475	-54.7328	-220.303	13.1985	-46.2066	-229.794	63.1714	-46.4224	-232.562	37.5545	-58.8919	-237.861	17.5003	-34.5886	-246.269	66.574	-37.2258	-247.714	41.3443	-50.5933	-248.419	23.8789	-30.772	-264.866	69.4517	-30.1665	-265.642	51.4771	-43.2164	-259.657	31.1745	-32.1367	-242.147	83.6923	4.95125	-244.789	90.4517	28.877	-218.708	83.5549	19.3623	
265	2.20833	-207.332	51.4789	27.7926	-207.869	27.8139	18.4924	-201.326	9.14847	4.60122	-205.906	-5.72028	-12.3147	-210.125	53.9662	-34.4362	-213.645	28.5963	-53.8713	-223.654	8.66142	-41.7922	-228.508	57.8155	-43.2202	-237.979	33.9553	-57.6748	-241.718	13.9817	-30.2668	-245.094	60.3386	-40.3238	-253.723	35.9337	-48.7545	-252	20.0573	-28.7457	-264.961	66.8047	-28.0168	-266.614	43.223	-40.529	-261.828	24.9618	-26.2822	-243.025	85.4999	3.94261	-242.833	92.7025	25.0772	-215.219	81.9301	15.9211	
266	2.21667	-207.319	50.778	27.2539	-207.936	25.9833	16.7407	-202.932	7.47383	5.57786	-206.349	-9.46263	-9.74571	-211.795	49.584	-36.066	-213.88	26.0872	-53.5328	-223.77	3.0741	-38.5675	-233.121	53.5463	-44.5454	-239.855	25.7098	-55.1349	-243.08	9.52221	-23.7569	-246.555	57.3174	-39.1243	-254.331	32.1385	-47.5797	-255.319	14.6686	-21.1183	-265.202	61.9104	-30.2469	-270.329	39.0531	-39.8521	-262.198	20.8854	-25.3979	-241.381	82.9064	-1.1326	-245.142	91.4186	25.0909	-216.367	80.254	14.7809	
267	2.225	-207.333	50.7254	28.2265	-204.501	23.228	18.6188	-204.874	6.82311	8.1759	-203.871	-13.8101	-6.26148	-210.888	45.503	-36.3105	-216.954	17.4924	-50.6676	-228.901	-1.8605	-31.1989	-232.635	45.9515	-46.7627	-240.028	20.6856	-52.8983	-241.452	5.23684	-22.2372	-251.243	54.1121	-37.8414	-254.669	24.506	-44.927	-255.621	11.5697	-22.5325	-264.661	58.1074	-28.1332	-269.612	35.783	-38.0514	-264.279	16.612	-23.4151	-246.579	81.7102	-1.40058	-245.847	90.6497	25.2062	-219.028	78.7683	13.571	
268	2.23333	-206.268	51.9854	29.7505	-206.074	25.1796	19.1494	-199.148	3.47105	7.06267	-201.944	-12.5652	-1.70196	-209.484	38.1659	-38.8613	-215.405	16.2023	-50.0055	-227.102	-6.474	-27.2905	-234.564	41.755	-44.9478	-242.486	12.0658	-47.3846	-242.174	2.29736	-20.8014	-252.883	47.4612	-38.4109	-253.805	20.6655	-42.2766	-253.835	9.22288	-20.1175	-270.371	53.5915	-28.3045	-269.003	30.2022	-35.6588	-261.716	13.7331	-15.2247	-246.892	79.1083	-1.79953	-244.661	89.612	24.4706	-220.971	78.0379	8.29625	
269	2.24167	-204.191	51.7461	32.0897	-200.51	22.5988	21.1478	-198.519	5.04514	10.516	-198.958	-17.2302	-2.82557	-211.485	36.4151	-34.8601	-217.761	10.8015	-47.8271	-223.239	-9.72717	-26.2785	-236.218	39.0118	-41.1572	-241.479	10.1425	-47.9424	-242.506	-0.221548	-16.7118	-249.073	40.0592	-38.9949	-253.461	11.8383	-37.9536	-254.469	5.32313	-9.74312	-268.985	48.8705	-25.2543	-270.135	23.6574	-32.2142	-263.408	9.65811	-14.0827	-247.272	73.7805	-0.318544	-242.5	87.6742	21.2683	-218.205	75.0231	12.6563	
270	2.25	-209.203	51.8814	29.4624	-199.745	21.3549	21.4528	-195.725	2.16325	11.635	-196.123	-16.6241	2.27464	-212.074	32.5921	-36.2817	-219.414	6.31001	-45.5818	-223.487	-12.8517	-24.1123	-233.397	30.5267	-43.3953	-240.91	3.47281	-44.9899	-238.962	-1.28207	-9.77729	-250.161	35.3932	-36.7978	-256.65	8.97796	-37.7732	-249.918	2.48879	-6.37857	-269.051	42.9879	-23.7266	-267.969	19.4214	-30.9327	-260.308	4.20515	-5.80032	-248.304	70.2166	-2.0366	-246.471	83.0888	20.8472	-221.052	74.5303	9.17672	
271	2.25833	-206.672	49.4362	28.7667	-198.037	19.3925	22.4888	-194.148	0.518543	13.9921	-198.497	-17.486	2.86315	-211.012	26.6154	-37.0197	-215.231	-0.236295	-41.7427	-223.636	-16.0207	-16.5281	-235.896	24.6926	-42.4274	-236.887	-2.75557	-42.0709	-237.22	-7.27606	-9.998	-250.677	30.4209	-33.146	-251.274	1.96669	-32.5904	-251.112	-1.44118	-5.0505	-267.465	34.96	-23.361	-268.656	8.50912	-23.7701	-257.661	4.31103	-0.0317965	-250.461	65.2698	-4.92863	-246.107	81.2721	19.2016	-222.487	68.6429	7.75162	
272	2.26667	-205.995	48.3087	31.3485	-201.599	21.2996	24.8359	-194.564	-3.35871	12.379	-195.349	-18.9139	7.65042	-215.88	25.1134	-34.1111	-215.556	-1.46432	-41.0546	-223.113	-17.5541	-17.3051	-236.541	20.5987	-40.7177	-241.076	-8.53026	-34.7846	-235.668	-9.25632	-6.76156	-251.627	22.704	-34.1781	-251.464	-1.57172	-31.5784	-247.173	-3.97994	-2.06308	-270.049	31.8814	-20.9358	-269.133	4.887	-21.9381	-260.326	-0.659476	-0.442016	-251.673	64.3619	-1.1517	-246.102	79.5663	20.1845	-222.489	67.0433	9.67244	
273	2.275	-206.258	45.816	28.5949	-201.702	19.4562	26.6633	-197.863	-2.93782	14.7573	-196.689	-21.7649	8.83287	-211.88	22.7249	-31.6147	-214.423	-5.9836	-38.8657	-218.405	-20.5057	-12.261	-235.718	18.2195	-37.1267	-241.637	-10.7264	-36.5208	-235.194	-12.1584	-3.57877	-255.596	18.9591	-33.3635	-251.85	-5.722	-28.8821	-247.829	-5.69902	2.8224	-269.389	27.6647	-19.372	-270.051	-0.0935725	-18.8439	-256.153	-5.4032	0.248343	-251.802	61.3622	-0.943431	-248.522	76.2369	20.1717	-226.669	64.6588	8.20692	
274	2.28333	-209.976	44.4768	29.6134	-199.565	16.6893	27.7533	-194.284	-6.36726	17.0964	-195.472	-25.7897	10.6394	-217.848	18.8921	-32.0877	-218.723	-8.31649	-38.0113	-222.665	-22.0135	-10.1752	-236.201	15.059	-37.5858	-236.796	-15.4893	-33.7056	-235.657	-14.7155	-2.28258	-257.014	16.2643	-31.4151	-255.698	-9.48999	-26.1496	-250.308	-8.57234	2.3549	-273.469	22.5762	-20.5206	-271.312	-2.02054	-18.2518	-257.601	-7.2519	4.73957	-250.172	55.7302	-1.60211	-249.035	70.972	16.6524	-226.17	64.5486	9.4232	
275	2.29167	-207.494	42.0843	29.2213	-200.436	14.6921	26.7392	-195.578	-7.52237	15.7577	-197.91	-30.1894	6.18636	-214.782	17.9232	-33.1748	-217.046	-13.0234	-36.4437	-222.107	-24.5929	-10.7406	-237.941	11.3844	-38.1195	-237.129	-17.5465	-31.9226	-240.732	-12.4703	-0.862522	-254.041	16.2978	-30.3823	-255.655	-11.8653	-25.3433	-248.794	-7.87238	4.54406	-270.593	21.9287	-20.2252	-268.821	-3.1491	-20.1549	-257.693	-5.11206	4.49904	-255.209	53.5165	-1.72899	-253.673	70.5974	15.8434	-226.149	60.1535	7.09788	
